<svg width="33" height="33" fill="none" xmlns="http://www.w3.org/2000/svg"><path d="M16.384 33h-.1c-.394-.1-9.485-2.911-13.932-11.544C-.612 15.634-.809 8.507 1.957.376c0-.1.1-.2.297-.3a.295.295 0 01.395 0s4.348 1.806 13.833 1.806c9.486 0 13.735-1.807 13.834-1.807.099-.1.296-.1.395 0l.297.301c2.766 8.131 2.667 15.258-.396 21.08C26.166 30.19 17.075 32.9 16.68 33h-.296zM2.649 1.18C.179 8.807.277 15.533 3.143 20.953c3.952 7.73 12.055 10.64 13.24 11.042 1.186-.401 9.289-3.312 13.241-11.042 2.767-5.52 2.965-12.146.494-19.775-1.383.502-5.73 1.707-13.734 1.707S4.13 1.68 2.649 1.179z" fill="#1AD9E5"/><path d="M14.21 21.055c-.099 0-.297-.1-.395-.1l-4.25-4.317a.49.49 0 010-.703c.198-.2.495-.2.692 0l3.953 4.016 9.288-9.436c.198-.2.494-.2.692 0a.49.49 0 010 .702l-9.585 9.737c-.198.1-.296.1-.395.1z" fill="#1AD9E5"/></svg>