<svg width="33" height="33" fill="none" xmlns="http://www.w3.org/2000/svg"><path d="M16.5 33C7.445 33 0 25.655 0 16.5 0 7.345 7.345 0 16.5 0 25.655 0 33 7.345 33 16.5 33 25.655 25.555 33 16.5 33zm0-31.893C7.948 1.107 1.006 8.049 1.006 16.6S7.948 32.093 16.5 32.093 31.994 25.151 31.994 16.6c0-8.552-7.043-15.494-15.494-15.494z" fill="#1AD9E5"/><path d="M20.39 16.71a4.039 4.039 0 001.297-2.96v-.813a4.067 4.067 0 00-4.062-4.062h-.813V6.437h-1.625v2.438h-4.062v16.25h4.063v2.438h1.624v-2.438h1.625a4.067 4.067 0 004.063-4.063v-.812a4.048 4.048 0 00-2.11-3.54zm-7.64-6.21h4.875a2.44 2.44 0 012.438 2.438v.812a2.44 2.44 0 01-2.438 2.438H12.75V10.5zm8.125 10.563a2.44 2.44 0 01-2.438 2.437H12.75v-5.688h5.688a2.44 2.44 0 012.437 2.438v.813z" fill="#1AD9E5"/></svg>