<svg width="33" height="31" fill="none" xmlns="http://www.w3.org/2000/svg"><path d="M29.93.97H3.07C1.476.97.2 1.966.161 3.258V22.01c0 1.284 1.29 2.329 2.91 2.329h12.57v4.51H8.114a.661.661 0 00-.456.18.6.6 0 00-.189.435.6.6 0 00.19.435c.12.115.284.18.455.18h16.77a.66.66 0 00.456-.18.6.6 0 00.19-.435.6.6 0 00-.19-.435.661.661 0 00-.456-.18H16.93v-4.51h13c1.62 0 2.91-1.046 2.91-2.329V3.3c0-1.284-1.29-2.329-2.91-2.329zm1.62 21.041c0 .595-.744 1.099-1.62 1.099H3.07c-.86 0-1.62-.504-1.62-1.099V3.274c0-.59.743-1.074 1.62-1.074h26.86c.86 0 1.621.504 1.621 1.099V22.01z" fill="#1AD9E5"/></svg>