<svg width="33" height="33" fill="none" xmlns="http://www.w3.org/2000/svg"><path d="M16.5 33C7.445 33 0 25.655 0 16.5 0 7.345 7.345 0 16.5 0 25.655 0 33 7.345 33 16.5 33 25.655 25.555 33 16.5 33zm0-31.893C7.948 1.107 1.006 8.049 1.006 16.6S7.948 32.093 16.5 32.093 31.994 25.151 31.994 16.6c0-8.552-7.043-15.494-15.494-15.494z" fill="#1AD9E5"/><path d="M16.601 24.843c-2.358 0-4.964-1.294-5.585-4.252-.062-.185.062-.308.248-.37.187-.061.31.062.373.247.682 2.958 3.35 4.005 5.647 3.759 1.924-.185 4.158-1.48 4.158-4.252 0-2.958-2.42-3.513-4.965-4.067-2.544-.617-5.15-1.171-5.15-4.19 0-2.959 2.296-4.438 4.53-4.623 2.482-.185 5.212 1.171 5.585 4.006 0 .185-.125.308-.249.37a.419.419 0 01-.372-.247c-.372-2.465-2.73-3.636-4.965-3.512-1.8.123-3.971 1.232-3.971 4.005 0 2.527 2.172 3.02 4.654 3.636 2.544.616 5.461 1.294 5.461 4.683 0 3.02-2.358 4.622-4.716 4.869-.248-.062-.435-.062-.683-.062z" fill="#1AD9E5"/><path d="M17.345 27c-.186 0-.31-.123-.31-.308V5.308c0-.185.124-.308.31-.308.187 0 .31.123.31.308v21.384c0 .185-.123.308-.31.308zm-2.047 0c-.186 0-.31-.123-.31-.308V5.308c0-.185.124-.308.31-.308s.31.123.31.308v21.384c0 .185-.186.308-.31.308z" fill="#1AD9E5"/></svg>