<svg width="33" height="33" fill="none" xmlns="http://www.w3.org/2000/svg"><path d="M16.5 33C7.445 33 0 25.655 0 16.5 0 7.345 7.345 0 16.5 0 25.655 0 33 7.345 33 16.5 33 25.655 25.555 33 16.5 33zm0-31.893C7.948 1.107 1.006 8.049 1.006 16.6S7.948 32.093 16.5 32.093 31.994 25.151 31.994 16.6c0-8.552-6.942-15.494-15.494-15.494z" fill="#1AD9E5"/><path d="M16.5 25.957c-.302 0-.503-.2-.503-.503V13.582c0-.301.201-.503.503-.503s.503.202.503.503v11.872c0 .202-.201.503-.503.503zm0-15.292c-.302 0-.503-.202-.503-.503V7.646c0-.301.201-.503.503-.503s.503.202.503.503v2.516c0 .301-.201.503-.503.503z" fill="#1AD9E5"/></svg>