<svg width="33" height="33" fill="none" xmlns="http://www.w3.org/2000/svg"><path d="M16.5 33C7.445 33 0 25.655 0 16.5 0 7.345 7.345 0 16.5 0 25.655 0 33 7.345 33 16.5 33 25.655 25.555 33 16.5 33zm0-31.893C7.948 1.107 1.006 8.049 1.006 16.6S7.948 32.093 16.5 32.093 31.994 25.151 31.994 16.6c0-8.552-7.043-15.494-15.494-15.494z" fill="#1AD9E5"/><path d="M16.299 22.436c-.302 0-.503-.201-.503-.503 0-5.03 2.213-5.835 3.924-6.54 1.307-.503 2.112-.805 2.112-2.716 0-1.811 0-5.131-5.533-5.131-1.811 0-3.22.503-4.125 1.509-1.308 1.408-1.207 3.32-1.207 3.32 0 .302-.202.503-.504.503-.301 0-.503-.201-.503-.503 0-.1-.1-2.314 1.409-4.024 1.107-1.208 2.716-1.811 4.93-1.811 6.54 0 6.54 4.326 6.54 6.137 0 2.515-1.51 3.119-2.818 3.622-1.61.603-3.32 1.308-3.32 5.634.1.302-.1.503-.402.503zm0 4.124c-.302 0-.604-.301-.604-.603s.302-.604.604-.604.603.302.603.604-.2.604-.603.604zm0-1.005a.433.433 0 00-.403.402c0 .201.201.403.403.403a.433.433 0 00.402-.403c0-.201-.1-.402-.402-.402z" fill="#1AD9E5"/></svg>