<svg width="33" height="32" fill="none" xmlns="http://www.w3.org/2000/svg"><path d="M26.407 31.96h-.193l-9.734-3.92-9.734 3.918c-.193.098-.289 0-.482-.098-.096-.098-.192-.293-.192-.391l.674-10.58-6.65-8.229C0 12.563 0 12.367 0 12.171c.096-.195.193-.293.385-.293l10.12-2.645L16.095.22c.192-.293.674-.293.77 0l5.59 9.013 10.12 2.645c.192 0 .289.196.385.293.096.196 0 .294-.096.49l-6.65 8.229.675 10.58c0 .196-.097.294-.193.392-.097.097-.193.097-.29.097zm-9.927-4.9h.193l9.155 3.723-.674-9.992c0-.098 0-.294.096-.392l6.36-7.739-9.637-2.449c-.096 0-.192-.098-.289-.196l-5.3-8.522-5.3 8.522c-.097.098-.194.196-.29.196l-9.638 2.45L7.517 20.4c.097.098.097.196.097.392l-.675 9.992 9.155-3.723h.386z" fill="#1AD9E5"/></svg>