<svg width="24" height="19" fill="none" xmlns="http://www.w3.org/2000/svg"><path d="M23.331 2.5a9.281 9.281 0 01-2.665.748A4.657 4.657 0 0022.703.669a9.37 9.37 0 01-2.947 1.138C18.901.875 17.698.333 16.333.333c-2.546 0-4.626 2.08-4.626 4.648 0 .368.043.726.12 1.062A13.21 13.21 0 012.25 1.189a4.598 4.598 0 00-.629 2.33c0 1.614.813 3.044 2.07 3.856-.77 0-1.485-.216-2.113-.542v.033a4.65 4.65 0 003.727 4.56 4.57 4.57 0 01-2.091.077c.585 1.83 2.286 3.195 4.333 3.228a9.231 9.231 0 01-5.774 1.993c-.368 0-.737-.021-1.105-.065a13.156 13.156 0 007.128 2.091c8.537 0 13.228-7.085 13.228-13.227 0-.206 0-.401-.011-.607A9.285 9.285 0 0023.331 2.5z" fill="#fff"/></svg>