<svg width="172" height="17" fill="none" xmlns="http://www.w3.org/2000/svg"><path d="M0 8.451C0 3.79 3.895 0 9.09 0c5.193 0 8.989 3.789 8.989 8.451 0 4.663-3.896 8.452-9.09 8.452C3.797 16.903 0 13.21 0 8.45zm13.285 0c0-2.331-1.699-4.371-4.295-4.371-2.498 0-4.196 2.04-4.196 4.371 0 2.332 1.698 4.372 4.295 4.372 2.497 0 4.196-1.943 4.196-4.372zm6.692.972V4.954C19.977 2.43 22.074.39 24.67.39v9.034c0 2.331 1.199 3.497 3.096 3.497 1.898 0 3.097-1.069 3.097-3.303V.291h4.694v9.035c0 5.245-3.096 7.577-7.89 7.577-4.795 0-7.691-2.332-7.691-7.48zm22.274-5.149h-4.994V.291H51.94v3.983h-4.994v12.337H42.35V4.274h-.1zM52.34 8.451C52.34 3.691 56.135 0 61.13 0c3.396 0 5.593 1.457 6.991 3.4l-3.396 2.526C63.727 4.76 62.628 4.08 61.03 4.08c-2.298 0-3.996 1.943-3.996 4.371 0 2.429 1.698 4.372 3.996 4.372 1.698 0 2.797-.777 3.795-1.943l3.496 2.429C66.723 15.446 64.626 17 60.93 17c-4.695-.097-8.59-3.594-8.59-8.549zm16.78 0C69.12 3.79 73.016 0 78.21 0s8.99 3.789 8.99 8.451c0 4.663-3.896 8.452-9.09 8.452s-8.99-3.692-8.99-8.452zm13.285 0c0-2.331-1.698-4.371-4.295-4.371-2.497 0-4.195 2.04-4.195 4.371 0 2.332 1.698 4.372 4.295 4.372 2.497 0 4.195-1.943 4.195-4.372zm6.992-8.16h4.894l3.995 6.315L102.282.29h4.894v16.32h-4.595V7.286L98.286 13.6h-.1l-4.295-6.314v9.325h-4.594V.291h.1zm20.475 0h13.484v3.886h-8.889v2.429h7.99V10.2h-7.99v2.623h8.989v3.886h-13.584V.29zm27.369 7.772c1.498-.583 2.597-1.749 2.597-3.594 0-1.166-.399-2.04-1.099-2.72-.998-.972-2.497-1.458-4.594-1.458h-8.59V9.91h8.09c1.598 0 2.298.582 2.298 1.457 0 .971-.799 1.554-2.198 1.554h-3.596v3.594h4.096c3.995 0 6.392-1.748 6.392-4.468-.1-2.137-1.298-3.303-3.396-3.983zM133.046 6.8h-2.897V3.983h2.997c1.398 0 2.097.486 2.097 1.36 0 .971-.799 1.457-2.197 1.457zm9.388-6.509h13.484v3.886h-8.89v2.429h7.991V10.2h-7.991v2.623h8.99v3.886h-13.584V.29zm19.878 3.983h-4.995V.291H172v3.983h-4.994v12.337h-4.595V4.274h-.099z" fill="#fff"/><path d="M130.148 16.611v-3.594h-4.495v1.749c0 1.068.899 1.845 1.898 1.845h2.597z" fill="#1AD9E6"/></svg>